<svg width="512" height="512" viewBox="0 0 512 512" fill="none" xmlns="http://www.w3.org/2000/svg">
<rect width="512" height="512" rx="110" fill="#791A1A"/>
<path d="M194.532 158.399L92.1631 253.975L89.4229 256.533L92.1631 259.092L193.961 354.133L167.1 379.211L35.1289 256L167.1 132.788L194.532 158.399ZM481.87 256L349.899 379.211L322.467 353.6L424.837 258.025L427.577 255.467L424.837 252.908L323.038 157.866L349.899 132.788L481.87 256Z" fill="#00E6FF" stroke="black" stroke-width="7"/>
<path d="M201.797 241.285C205.954 244.634 210.35 247.571 214.986 250.088C220.127 252.879 225.548 255.144 231.241 256.894L174.592 412.421L147.771 438.402L143.591 401.606L201.797 241.285ZM369.075 401.608L364.895 438.402L338.074 412.421L281.425 256.894C287.118 255.144 292.54 252.879 297.681 250.088C302.317 247.571 306.713 244.634 310.869 241.285L369.075 401.608ZM273.167 68.5V114.147L276.207 115.19C287.764 119.153 297.241 126.144 304.712 136.271C312.124 146.318 315.833 157.732 315.833 170.667C315.833 187.265 310.075 201.227 298.484 212.818C286.893 224.409 272.931 230.167 256.333 230.167C239.735 230.167 225.773 224.409 214.182 212.818C202.591 201.227 196.833 187.265 196.833 170.667C196.833 157.732 200.543 146.318 207.955 136.271C215.426 126.144 224.902 119.153 236.459 115.19L239.5 114.147V68.5H273.167ZM256.333 144.833C249.155 144.833 242.926 147.311 237.951 152.285C232.977 157.26 230.5 163.489 230.5 170.667C230.5 177.845 232.977 184.074 237.951 189.049C242.926 194.023 249.155 196.5 256.333 196.5C263.511 196.5 269.74 194.023 274.715 189.049C279.689 184.074 282.167 177.845 282.167 170.667C282.167 163.489 279.689 157.26 274.715 152.285C269.74 147.311 263.511 144.833 256.333 144.833Z" fill="white" stroke="black" stroke-width="9"/>
</svg>
