<svg width="512" height="512" viewBox="0 0 512 512" fill="none" xmlns="http://www.w3.org/2000/svg">
    <style>
        .frame {
            fill: white;
        }
        .code {
            fill: #00BFA6;
            stroke: black;
        }
        .compass {
            fill: #A62525;
            stroke: black;
        }
        @media (prefers-color-scheme: dark) {
            .frame {
                fill: black;
            }
            .code {
                fill: #A62525;
                stroke: white;
            }
            .compass {
                fill: #00BFA6;
                stroke: white;
            }
        }
    </style>
    <rect class="frame" width="512" height="512" rx="110" fill="white"/>
    <path class="code" d="M167.1 384L30 256L167.1 128L199.661 158.4L94.5513 256.533L199.09 354.133L167.1 384ZM349.9 384L317.339 353.6L422.449 255.467L317.91 157.867L349.9 128L487 256L349.9 384Z" fill="#00BFA6" stroke="black" stroke-width="8" stroke-linejoin="round"/>
    <path class="compass" d="M144.333 448L139 401.067L199.8 233.6C205.133 238.578 210.911 242.756 217.133 246.133C223.356 249.511 230.022 252.089 237.133 253.867L178.467 414.933L144.333 448ZM368.333 448L334.2 414.933L275.533 253.867C282.644 252.089 289.311 249.511 295.533 246.133C301.756 242.756 307.533 238.578 312.867 233.6L373.667 401.067L368.333 448ZM211 216C198.556 203.556 192.333 188.444 192.333 170.667C192.333 156.8 196.333 144.444 204.333 133.6C212.333 122.756 222.556 115.2 235 110.933V64H277.667V110.933C290.111 115.2 300.333 122.756 308.333 133.6C316.333 144.444 320.333 156.8 320.333 170.667C320.333 188.444 314.111 203.556 301.667 216C289.222 228.444 274.111 234.667 256.333 234.667C238.556 234.667 223.444 228.444 211 216ZM271.533 185.867C275.622 181.778 277.667 176.711 277.667 170.667C277.667 164.622 275.622 159.556 271.533 155.467C267.444 151.378 262.378 149.333 256.333 149.333C250.289 149.333 245.222 151.378 241.133 155.467C237.044 159.556 235 164.622 235 170.667C235 176.711 237.044 181.778 241.133 185.867C245.222 189.956 250.289 192 256.333 192C262.378 192 267.444 189.956 271.533 185.867Z" fill="#A62525" stroke="black" stroke-width="8"/>
</svg>
